<svg xmlns="http://www.w3.org/2000/svg" width="400" height="200" viewBox="0 0 300 150"><defs><clipPath id="a"><path d="M0 0h31v150H0z"/></clipPath></defs><path fill="#efefef" d="M37.727 136.215v-24.718q-6.924-1.735-11.875-5.625-4.94-3.891-7.53-9.516-2.596-5.625-2.595-12.187V47.715h19.157V83.56q-.001 3.33 1.609 6.172a12.1 12.1 0 0 0 4.39 4.516q2.778 1.674 6.235 1.672 3.592.002 6.375-1.672a12.05 12.05 0 0 0 4.375-4.516c1.07-1.894 1.61-3.953 1.61-6.172V47.715h19.171V84.17q-.002 6.563-2.547 12.125c-1.687 3.71-4.164 6.882-7.422 9.515q-4.876 3.956-11.796 5.563v24.843Zm69.713-23.609q-6.549-.002-12.172-2.594-5.625-2.59-9.031-7.906-3.391-5.326-3.39-13.36v-41.03h19.156v43.5q-.002 1.488.734 2.718.749 1.236 1.984 1.985c.82.492 1.727.734 2.72.734a5.2 5.2 0 0 0 2.718-.734q1.23-.749 1.969-1.985.75-1.23.75-2.719V70.09c0-5.113 1.07-9.441 3.218-12.984q3.216-5.31 8.829-8.094c3.75-1.851 7.972-2.781 12.671-2.781 4.696 0 8.899.93 12.61 2.781q5.56 2.785 8.781 8.094 3.218 5.314 3.219 12.984v21.125c0 .993.242 1.899.734 2.72q.748 1.234 2.047 1.984a5.5 5.5 0 0 0 2.781.734 5.2 5.2 0 0 0 2.719-.734q1.23-.749 1.969-1.985.75-1.23.75-2.719v-43.5h19.156v41.032q-.001 8.032-3.406 13.359-3.392 5.316-9.016 7.906-5.625 2.592-12.172 2.594-6.562-.002-12.187-2.594-5.612-2.59-9.078-7.906-3.47-5.326-3.47-13.36V67.732q0-1.606-.733-2.844a5.6 5.6 0 0 0-1.985-1.968q-1.236-.75-2.719-.75-1.488 0-2.78.75a5.57 5.57 0 0 0-2.048 1.968q-.736 1.238-.734 2.844v21.016q-.001 8.032-3.406 13.359-3.392 5.316-9.016 7.906-5.626 2.592-12.172 2.594m0 0"/><g clip-path="url(#a)" transform="translate(258)"><path fill="#efefef" d="M17.35 124.701q-4.939 0-8.468-3.515-3.515-3.529-3.515-8.36 0-4.935 3.515-8.453c2.352-2.351 5.176-3.531 8.469-3.531 3.219 0 6 1.18 8.344 3.531q3.528 3.518 3.53 8.453c0 2.149-.538 4.125-1.608 5.938-1.075 1.812-2.497 3.258-4.266 4.328-1.774 1.07-3.774 1.61-6 1.61m0 0"/></g><path fill="#efefef" d="M230.155 112.606c-5.274 0-10.031-.824-14.281-2.469-4.243-1.656-7.805-4.023-10.688-7.11q-4.314-4.638-6.672-10.937-2.344-6.31-2.344-13.718 0-9.64 3.891-16.813 3.89-7.171 10.75-11.25c4.57-2.719 9.828-4.078 15.766-4.078q3.826 0 7.218.984 3.405.985 6.188 2.907c1.852 1.28 3.398 2.789 4.64 4.515H245v-33.75h19.156v57.36q0 10.377-4.203 18.172-4.207 7.781-11.813 11.984-7.594 4.202-17.984 4.203m0-16.562q4.453 0 7.734-2.157 3.28-2.168 5-5.937 1.734-3.78 1.735-8.469 0-4.701-1.735-8.406-1.72-3.703-5-5.86-3.28-2.17-7.734-2.171c-2.875 0-5.43.726-7.656 2.171q-3.344 2.157-5.079 5.86-1.72 3.705-1.718 8.406c0 3.125.57 5.95 1.718 8.469q1.734 3.768 5.079 5.937 3.34 2.157 7.656 2.157m0 0"/></svg>