<svg xmlns="http://www.w3.org/2000/svg" xmlns:xlink="http://www.w3.org/1999/xlink" width="400" zoomAndPan="magnify" viewBox="0 0 300 149.999998" height="200" preserveAspectRatio="xMidYMid meet" version="1.0"><defs><g/><clipPath id="df6ab5d549"><rect x="0" width="282" y="0" height="150"/></clipPath></defs><g transform="matrix(1, 0, 0, 1, 7, -0.000000000000007527)"><g clip-path="url(#df6ab5d549)"><g fill="#baa591" fill-opacity="1"><g transform="translate(0.830857, 110.842633)"><g><path d="M 29.171875 25.09375 L 29.171875 0.375 C 24.554688 -0.78125 20.597656 -2.65625 17.296875 -5.25 C 14.003906 -7.84375 11.492188 -11.015625 9.765625 -14.765625 C 8.035156 -18.515625 7.171875 -22.578125 7.171875 -26.953125 L 7.171875 -63.421875 L 26.328125 -63.421875 L 26.328125 -27.5625 C 26.328125 -25.34375 26.863281 -23.285156 27.9375 -21.390625 C 29.007812 -19.492188 30.472656 -17.988281 32.328125 -16.875 C 34.179688 -15.757812 36.265625 -15.203125 38.578125 -15.203125 C 40.960938 -15.203125 43.082031 -15.757812 44.9375 -16.875 C 46.789062 -17.988281 48.253906 -19.492188 49.328125 -21.390625 C 50.398438 -23.285156 50.9375 -25.34375 50.9375 -27.5625 L 50.9375 -63.421875 L 70.09375 -63.421875 L 70.09375 -26.953125 C 70.09375 -22.578125 69.25 -18.535156 67.5625 -14.828125 C 65.875 -11.117188 63.398438 -7.945312 60.140625 -5.3125 C 56.890625 -2.675781 52.957031 -0.820312 48.34375 0.25 L 48.34375 25.09375 Z M 29.171875 25.09375 "/></g></g></g><g fill="#baa591" fill-opacity="1"><g transform="translate(67.94766, 110.842633)"><g><path d="M 31.765625 1.484375 C 27.398438 1.484375 23.34375 0.617188 19.59375 -1.109375 C 15.84375 -2.835938 12.832031 -5.472656 10.5625 -9.015625 C 8.300781 -12.566406 7.171875 -17.019531 7.171875 -22.375 L 7.171875 -63.421875 L 26.328125 -63.421875 L 26.328125 -19.90625 C 26.328125 -18.914062 26.570312 -18.007812 27.0625 -17.1875 C 27.5625 -16.363281 28.222656 -15.703125 29.046875 -15.203125 C 29.867188 -14.710938 30.773438 -14.46875 31.765625 -14.46875 C 32.753906 -14.46875 33.660156 -14.710938 34.484375 -15.203125 C 35.316406 -15.703125 35.976562 -16.363281 36.46875 -17.1875 C 36.96875 -18.007812 37.21875 -18.914062 37.21875 -19.90625 L 37.21875 -41.046875 C 37.21875 -46.148438 38.285156 -50.472656 40.421875 -54.015625 C 42.566406 -57.566406 45.515625 -60.269531 49.265625 -62.125 C 53.015625 -63.976562 57.238281 -64.90625 61.9375 -64.90625 C 66.632812 -64.90625 70.835938 -63.976562 74.546875 -62.125 C 78.253906 -60.269531 81.175781 -57.566406 83.3125 -54.015625 C 85.457031 -50.472656 86.53125 -46.148438 86.53125 -41.046875 L 86.53125 -19.90625 C 86.53125 -18.914062 86.773438 -18.007812 87.265625 -17.1875 C 87.765625 -16.363281 88.445312 -15.703125 89.3125 -15.203125 C 90.175781 -14.710938 91.101562 -14.46875 92.09375 -14.46875 C 93.082031 -14.46875 93.988281 -14.710938 94.8125 -15.203125 C 95.644531 -15.703125 96.304688 -16.363281 96.796875 -17.1875 C 97.296875 -18.007812 97.546875 -18.914062 97.546875 -19.90625 L 97.546875 -63.421875 L 116.703125 -63.421875 L 116.703125 -22.375 C 116.703125 -17.019531 115.566406 -12.566406 113.296875 -9.015625 C 111.035156 -5.472656 108.03125 -2.835938 104.28125 -1.109375 C 100.53125 0.617188 96.46875 1.484375 92.09375 1.484375 C 87.726562 1.484375 83.671875 0.617188 79.921875 -1.109375 C 76.171875 -2.835938 73.140625 -5.472656 70.828125 -9.015625 C 68.523438 -12.566406 67.375 -17.019531 67.375 -22.375 L 67.375 -43.390625 C 67.375 -44.460938 67.125 -45.410156 66.625 -46.234375 C 66.132812 -47.054688 65.476562 -47.710938 64.65625 -48.203125 C 63.832031 -48.703125 62.925781 -48.953125 61.9375 -48.953125 C 60.945312 -48.953125 60.019531 -48.703125 59.15625 -48.203125 C 58.289062 -47.710938 57.609375 -47.054688 57.109375 -46.234375 C 56.617188 -45.410156 56.375 -44.460938 56.375 -43.390625 L 56.375 -22.375 C 56.375 -17.019531 55.238281 -12.566406 52.96875 -9.015625 C 50.707031 -5.472656 47.703125 -2.835938 43.953125 -1.109375 C 40.203125 0.617188 36.140625 1.484375 31.765625 1.484375 Z M 31.765625 1.484375 "/></g></g></g><g fill="#baa591" fill-opacity="1"><g transform="translate(181.663817, 110.842633)"><g><path d="M 38.203125 1.484375 C 32.921875 1.484375 28.160156 0.660156 23.921875 -0.984375 C 19.679688 -2.640625 16.117188 -5.007812 13.234375 -8.09375 C 10.347656 -11.1875 8.117188 -14.832031 6.546875 -19.03125 C 4.984375 -23.238281 4.203125 -27.816406 4.203125 -32.765625 C 4.203125 -39.191406 5.5 -44.796875 8.09375 -49.578125 C 10.6875 -54.359375 14.269531 -58.109375 18.84375 -60.828125 C 23.425781 -63.546875 28.679688 -64.90625 34.609375 -64.90625 C 37.171875 -64.90625 39.582031 -64.570312 41.84375 -63.90625 C 44.113281 -63.25 46.175781 -62.28125 48.03125 -61 C 49.882812 -59.726562 51.429688 -58.226562 52.671875 -56.5 L 53.03125 -56.5 L 53.03125 -90.25 L 72.203125 -90.25 L 72.203125 -32.890625 C 72.203125 -25.960938 70.800781 -19.898438 68 -14.703125 C 65.195312 -9.515625 61.257812 -5.519531 56.1875 -2.71875 C 51.113281 0.0820312 45.117188 1.484375 38.203125 1.484375 Z M 38.203125 -15.078125 C 41.171875 -15.078125 43.742188 -15.796875 45.921875 -17.234375 C 48.109375 -18.679688 49.78125 -20.660156 50.9375 -23.171875 C 52.09375 -25.691406 52.671875 -28.515625 52.671875 -31.640625 C 52.671875 -34.773438 52.09375 -37.578125 50.9375 -40.046875 C 49.78125 -42.523438 48.109375 -44.484375 45.921875 -45.921875 C 43.742188 -47.367188 41.171875 -48.09375 38.203125 -48.09375 C 35.316406 -48.09375 32.757812 -47.367188 30.53125 -45.921875 C 28.3125 -44.484375 26.625 -42.523438 25.46875 -40.046875 C 24.3125 -37.578125 23.734375 -34.773438 23.734375 -31.640625 C 23.734375 -28.515625 24.3125 -25.691406 25.46875 -23.171875 C 26.625 -20.660156 28.3125 -18.679688 30.53125 -17.234375 C 32.757812 -15.796875 35.316406 -15.078125 38.203125 -15.078125 Z M 38.203125 -15.078125 "/></g></g></g><g fill="#baa591" fill-opacity="1"><g transform="translate(251.788416, 123.217014)"><g><path d="M 16.5625 1.484375 C 13.269531 1.484375 10.445312 0.3125 8.09375 -2.03125 C 5.75 -4.382812 4.578125 -7.171875 4.578125 -10.390625 C 4.578125 -13.679688 5.75 -16.5 8.09375 -18.84375 C 10.445312 -21.195312 13.269531 -22.375 16.5625 -22.375 C 19.78125 -22.375 22.5625 -21.195312 24.90625 -18.84375 C 27.257812 -16.5 28.4375 -13.679688 28.4375 -10.390625 C 28.4375 -8.242188 27.898438 -6.265625 26.828125 -4.453125 C 25.753906 -2.640625 24.332031 -1.195312 22.5625 -0.125 C 20.789062 0.945312 18.789062 1.484375 16.5625 1.484375 Z M 16.5625 1.484375 "/></g></g></g></g></g></svg>